HIERARCHY
ROOT Hips
{
	OFFSET 0.000000 0.000000 0.000000
	CHANNELS 6 Xposition Yposition Zposition Xrotation Yrotation Zrotation
	JOINT Chest
	{
		OFFSET 0.000000 0.009282 11.569106
		CHANNELS 3 Xrotation Yrotation Zrotation
		JOINT Chest2
		{
			OFFSET 0.000000 -0.016863 9.269641
			CHANNELS 3 Xrotation Yrotation Zrotation
			JOINT Chest3
			{
				OFFSET 0.000000 0.000000 8.374491
				CHANNELS 3 Xrotation Yrotation Zrotation
				JOINT Chest4
				{
					OFFSET 0.000000 0.000000 8.374493
					CHANNELS 3 Xrotation Yrotation Zrotation
					JOINT Neck
					{
						OFFSET 0.000000 -0.000001 12.152554
						CHANNELS 3 Xrotation Yrotation Zrotation
						JOINT Head
						{
							OFFSET 0.000000 -0.040100 7.802319
							CHANNELS 3 Xrotation Yrotation Zrotation
							End Site
							{
								OFFSET 0.000000 -0.020946 14.853096
							}
						}
					}
					JOINT RightCollar
					{
						OFFSET -2.894404 0.000000 6.791374
						CHANNELS 3 Xrotation Yrotation Zrotation
						JOINT RightShoulder
						{
							OFFSET -13.574684 0.000000 0.000000
							CHANNELS 3 Xrotation Yrotation Zrotation
							JOINT RightElbow
							{
								OFFSET -23.923903 0.000000 0.000000
								CHANNELS 3 Xrotation Yrotation Zrotation
								JOINT RightWrist
								{
									OFFSET -19.846718 -0.012765 0.000000
									CHANNELS 3 Xrotation Yrotation Zrotation
									End Site
									{
										OFFSET -14.973145 0.000000 0.000000
									}
								}
							}
						}
					}
					JOINT LeftCollar
					{
						OFFSET 2.894404 0.000000 6.791374
						CHANNELS 3 Xrotation Yrotation Zrotation
						JOINT LeftShoulder
						{
							OFFSET 13.574684 0.000000 0.000000
							CHANNELS 3 Xrotation Yrotation Zrotation
							JOINT LeftElbow
							{
								OFFSET 23.923903 0.000000 0.000000
								CHANNELS 3 Xrotation Yrotation Zrotation
								JOINT LeftWrist
								{
									OFFSET 19.846718 -0.012765 0.000000
									CHANNELS 3 Xrotation Yrotation Zrotation
									End Site
									{
										OFFSET 14.973145 0.000000 0.000000
									}
								}
							}
						}
					}
				}
			}
		}
	}
	JOINT RightHip
	{
		OFFSET -9.469263 -0.004642 0.045487
		CHANNELS 3 Xrotation Yrotation Zrotation
		JOINT RightKnee
		{
			OFFSET 0.000000 -0.002666 -40.478676
			CHANNELS 3 Xrotation Yrotation Zrotation
			JOINT RightAnkle
			{
				OFFSET 0.000000 -0.049110 -35.224068
				CHANNELS 3 Xrotation Yrotation Zrotation
				JOINT RightToe
				{
					OFFSET 0.000000 -12.539530 -6.151390
					CHANNELS 3 Xrotation Yrotation Zrotation
					End Site
					{
						OFFSET 0.000000 -5.044995 -1.291870
					}
				}
			}
		}
	}
	JOINT LeftHip
	{
		OFFSET 9.469263 -0.004642 0.045487
		CHANNELS 3 Xrotation Yrotation Zrotation
		JOINT LeftKnee
		{
			OFFSET 0.000000 -0.002666 -40.478676
			CHANNELS 3 Xrotation Yrotation Zrotation
			JOINT LeftAnkle
			{
				OFFSET 0.000000 -0.049110 -35.224068
				CHANNELS 3 Xrotation Yrotation Zrotation
				JOINT LeftToe
				{
					OFFSET 0.000000 -12.539530 -6.151390
					CHANNELS 3 Xrotation Yrotation Zrotation
					End Site
					{
						OFFSET 0.000000 -5.044995 -1.291870
					}
				}
			}
		}
	}
}
MOTION
Frames: 9
Frame Time: 0.016667
-8.948708 -7.473777 83.167480 1.822431 5.594416 -109.808098 2.585382 0.046024 0.998761 1.148049 0.013855 0.434834 1.148049 0.013855 0.434833 0.861047 0.009575 0.326154 24.948004 -0.765297 -1.270694 10.140843 -1.100269 -2.511519 -0.119738 -11.120935 -3.734983 -72.968496 -58.069660 -63.631620 -8.724249 -0.188519 22.735220 -61.069234 43.362607 85.634193 0.302907 9.830951 0.669916 -61.989888 62.821061 50.214864 -20.546013 6.531583 -13.623770 -53.541511 -44.907886 -79.060095 4.411177 0.838883 -2.591597 5.385284 -1.811471 -5.870064 -3.321634 1.101532 1.975831 0.010417 -0.004046 0.003887 5.673077 0.978607 -0.527981 3.644373 -0.101850 1.981359 -3.444869 -1.426740 1.899724 0.025149 0.087284 -0.002638 
-8.967109 -7.461538 83.164650 1.845583 5.607678 -109.881665 2.560888 0.002296 0.971737 1.136346 -0.007588 0.424192 1.136346 -0.007588 0.424186 0.852255 -0.006480 0.318123 24.928186 -0.718765 -1.290179 10.105039 -1.009985 -2.536324 -0.124013 -11.182415 -3.497061 -71.162874 -58.151247 -62.152092 -8.737706 -2.662315 20.761538 -62.049482 43.426691 84.845149 0.042838 9.866889 0.674345 -59.286192 63.732017 48.729469 -19.067368 6.795400 -12.217100 -55.886612 -44.861051 -77.874368 4.444960 0.830345 -2.625229 5.375358 -1.818333 -5.791486 -3.331775 1.099198 1.999237 0.016125 0.007090 0.003469 5.703746 0.970520 -0.491738 3.674782 -0.105911 1.981757 -3.495401 -1.461312 1.914658 0.034284 0.100515 -0.004332 
-8.988906 -7.447748 83.163719 1.860991 5.621421 -109.963997 2.539177 -0.020056 0.965353 1.126655 -0.017215 0.422803 1.126655 -0.017215 0.422795 0.844980 -0.013691 0.317072 24.900255 -0.695271 -1.306357 10.053706 -0.962553 -2.560632 -0.314140 -11.230133 -3.337652 -68.353378 -58.321756 -59.833721 -8.427577 -5.035576 18.445237 -63.398560 43.501106 83.916080 -0.272897 9.866528 0.715961 -56.337596 64.126816 46.951912 -16.214061 7.099635 -10.642740 -57.770922 -44.661767 -75.681542 4.476944 0.824683 -2.636034 5.366483 -1.815318 -5.738355 -3.342170 1.092499 2.025723 0.019426 0.014084 0.003399 5.742685 0.972752 -0.431959 3.690577 -0.113927 1.961526 -3.533410 -1.489517 1.953058 0.034649 0.106502 -0.003316 
-9.012649 -7.432440 83.164612 1.868043 5.635065 -110.047543 2.510778 -0.018346 0.981514 1.115028 -0.013998 0.431954 1.115029 -0.013998 0.431952 0.836262 -0.011287 0.323943 24.873577 -0.692534 -1.321033 10.004289 -0.953539 -2.587115 -0.582664 -11.273749 -3.200427 -64.613760 -58.968595 -56.923411 -7.728039 -6.765900 16.296543 -64.894611 43.626672 82.815859 -0.664545 9.871647 0.717619 -52.812201 64.234186 44.704179 -12.648989 7.431283 -9.126243 -58.385441 -44.353640 -72.210426 4.502450 0.818320 -2.609488 5.358612 -1.804062 -5.724453 -3.344316 1.089911 2.049952 0.015362 0.014322 0.003122 5.789548 0.976920 -0.389388 3.690782 -0.113564 1.962282 -3.551781 -1.507875 1.985853 0.019958 0.102765 -0.001909 
-9.037239 -7.415381 83.165390 1.868473 5.647233 -110.128392 2.479365 0.006672 1.030142 1.101499 -0.001681 0.454380 1.101499 -0.001681 0.454372 0.826124 -0.002079 0.340780 24.840215 -0.711596 -1.344082 9.942066 -0.982333 -2.634226 -0.672748 -11.367400 -2.976843 -60.060667 -59.913989 -53.376723 -6.525983 -7.932808 14.563275 -66.063509 43.842479 81.544843 -1.019016 9.932113 0.541732 -48.513119 64.354951 41.805406 -9.149389 7.825531 -8.023107 -58.056130 -44.106203 -68.293846 4.529594 0.817043 -2.563703 5.349390 -1.791225 -5.731113 -3.356074 1.090240 2.076524 0.016441 0.009112 0.002398 5.834596 0.980131 -0.385366 3.681565 -0.103301 2.001232 -3.571260 -1.519148 2.014959 0.014310 0.092746 -0.000186 
-9.061447 -7.397907 83.164719 1.867228 5.655155 -110.196906 2.442668 0.048847 1.088685 1.085436 0.017328 0.481230 1.085437 0.017328 0.481223 0.814092 0.012141 0.360957 24.795554 -0.746198 -1.365245 9.858507 -1.039824 -2.681770 -0.680948 -11.507087 -2.696828 -54.748836 -60.983726 -49.293462 -4.797786 -8.717265 13.333276 -66.457966 44.210834 79.941832 -1.146763 9.946783 0.334163 -43.589656 64.688435 38.297786 -6.056852 8.275103 -7.461394 -57.363166 -43.980582 -64.679480 4.554881 0.816611 -2.529079 5.338591 -1.782870 -5.732547 -3.370932 1.097444 2.100590 0.019096 0.001817 0.001163 5.875530 0.980587 -0.425298 3.669111 -0.089107 2.074834 -3.590134 -1.528734 2.040579 0.011349 0.083120 0.000696 
-9.084727 -7.377094 83.163429 1.862363 5.653917 -110.248126 2.422415 0.099882 1.152535 1.076144 0.040075 0.510550 1.076144 0.040075 0.510551 0.807142 0.029157 0.382986 24.710538 -0.796817 -1.394236 9.699722 -1.123963 -2.747980 -0.711724 -11.606210 -2.505506 -48.854093 -61.896745 -44.705162 -2.575985 -9.499180 12.525294 -65.908149 44.600186 77.622040 -1.259753 9.960817 0.126861 -38.320076 64.977994 34.459845 -3.077384 8.789018 -7.355819 -56.890602 -43.935274 -61.621209 4.577916 0.811766 -2.521491 5.318627 -1.771408 -5.711069 -3.382912 1.110387 2.127348 0.020952 -0.007086 0.001057 5.905233 0.980657 -0.471800 3.657387 -0.080248 2.153139 -3.610899 -1.534711 2.047572 0.010969 0.076065 0.000335 
-9.106709 -7.353400 83.162720 1.855887 5.639680 -110.273466 2.411363 0.153346 1.206586 1.070986 0.063355 0.535578 1.070986 0.063355 0.535579 0.803295 0.046578 0.401796 24.588855 -0.859082 -1.427529 9.472518 -1.227584 -2.825426 -0.637662 -11.652588 -2.369204 -43.004476 -62.301577 -39.984641 0.069382 -10.636037 12.071354 -64.871764 44.823762 74.866366 -1.454548 9.982202 -0.062238 -33.159479 64.836786 30.728348 -0.025309 9.598464 -7.607141 -56.488379 -43.927033 -58.953999 4.594835 0.801212 -2.523682 5.291590 -1.765470 -5.694530 -3.392702 1.126853 2.144806 0.021082 -0.012845 0.000666 5.918603 0.975162 -0.505057 3.647727 -0.076568 2.203491 -3.630982 -1.539521 2.054313 0.011664 0.072129 -0.000197 
-9.129360 -7.329758 83.163139 1.845678 5.615569 -110.271246 2.408165 0.200680 1.244904 1.069486 0.083413 0.553187 1.069486 0.083413 0.553187 0.802191 0.061592 0.415037 24.439551 -0.915241 -1.466486 9.194126 -1.317933 -2.912316 -0.633481 -11.672371 -2.279718 -37.133679 -62.138814 -35.131611 2.818307 -12.299353 11.900446 -63.951095 45.027465 72.119209 -1.654242 9.994044 -0.261866 -28.675743 64.273555 27.528767 2.844760 10.720306 -8.061322 -55.625925 -43.802444 -56.435493 4.603852 0.794127 -2.541653 5.266161 -1.768320 -5.679588 -3.404319 1.136985 2.147692 0.019697 -0.010469 -0.000597 5.916521 0.967608 -0.498925 3.643702 -0.078845 2.199547 -3.652118 -1.542981 2.050086 0.012514 0.069406 -0.000572 
